<svg height="512" viewBox="0 0 512 512" width="512" xmlns="http://www.w3.org/2000/svg">
	<g>
		<path
			d="m421.083 250.645-165.083 188.934-165.068-188.934c-35.909-41.579-35.909-108.969 0-150.526 17.945-20.778 41.462-31.178 65-31.178 23.517 0 47.055 10.4 65 31.178l35.068 35.168 35.066-35.168c17.945-20.778 41.482-31.178 65.019-31.178 23.518 0 47.036 10.4 65 31.178 35.887 41.557 35.887 108.947-.002 150.526z"
			fill="#d80027" />
		<path
			d="m496 247h-61.95c14.22-20.25 21.95-45.27 21.95-71.63 0-30.35-10.25-58.93-28.87-80.48-18.92-21.89-44.15-33.95-71.05-33.95-26.83 0-51.99 11.98-70.88 33.73l-29.2 29.29-29.21-29.29c-18.88-21.75-44.04-33.73-70.86-33.73-26.91 0-52.15 12.06-71.05 33.95-18.62 21.55-28.88 50.13-28.88 80.48 0 26.35 7.73 51.36 21.97 71.63h-61.97a8 8 0 0 0 0 16h75.1l158.87 181.84a7.994 7.994 0 0 0 12.05 0l158.89-181.84h75.09a8 8 0 0 0 0-16zm-240 180.42-143.65-164.42h87.65a8 8 0 0 0 7.59-5.47l8.67-26.01 32.21 90.17a8 8 0 0 0 7.53 5.31h.29a8.022 8.022 0 0 0 7.42-5.86l32.59-117.31 16.04 53.47a8 8 0 0 0 7.66 5.7h79.66zm159.04-182.01-1.4 1.59h-87.69l-22.29-74.3a7.986 7.986 0 0 0 -7.66-5.7h-.08a8.013 8.013 0 0 0 -7.63 5.86l-33.24 119.68-31.52-88.23a7.981 7.981 0 0 0 -7.53-5.31h-.08a8 8 0 0 0 -7.51 5.47l-14.18 42.53h-95.86l-1.38-1.58c-33.36-38.63-33.36-101.46 0-140.07 15.82-18.32 36.75-28.41 58.94-28.41s43.13 10.09 58.95 28.41q.18.21.39.42l35.06 35.17a8 8 0 0 0 11.33 0l35.07-35.17.39-.42c15.82-18.32 36.76-28.41 58.96-28.41 22.18 0 43.11 10.09 58.95 28.41 33.34 38.6 33.34 101.43.01 140.06z" />
	</g>
</svg>